<?xml version="1.0" encoding="utf-8"?>
<!-- Generator: Adobe Illustrator 21.0.2, SVG Export Plug-In . SVG Version: 6.00 Build 0)  -->
<svg version="1.1" id="Layer_1" xmlns="http://www.w3.org/2000/svg" xmlns:xlink="http://www.w3.org/1999/xlink" x="0px" y="0px"
	 viewBox="0 0 1374 320" style="enable-background:new 0 0 1374 320;" xml:space="preserve">
<style type="text/css">
	.st0{fill:none;stroke:#00155C;stroke-width:2;stroke-miterlimit:10;}
</style>
<g>
	<g>
		<line class="st0" x1="1053" y1="262.7" x2="1375" y2="262.7"/>
		<path class="st0" d="M1156.5,217.2l27.5-21.4c18.3-14.2,43.8-14.2,62.1,0l86,66.9H1215L1156.5,217.2z"/>
		<g>
			<line class="st0" x1="1134" y1="199.7" x2="1134" y2="185.7"/>
			<path class="st0" d="M1127.5,185.7h12.8c3.1,0,5.1-3.2,3.8-6l-8.1-16.9c-0.8-1.7-3.2-1.7-4,0l-8.1,16.9
				C1122.5,182.5,1124.5,185.7,1127.5,185.7z"/>
		</g>
		<path class="st0" d="M1305.2,102.5c-2,0-3.8,0.4-5.5,1.2c0-0.4,0.1-0.8,0.1-1.2c0-5.9-4.8-10.7-10.7-10.7c-2.5,0-4.8,0.9-6.6,2.3
			c-1.4-5.8-6.6-10.1-12.8-10.1c-7,0-12.7,5.5-13.1,12.4c-2.6-1.4-5.7-2.1-8.8-2.1c-10.7,0-19.3,8.7-19.3,19.3
			c0,10.7,8.7,19.3,19.3,19.3c1.1,0,2.2-0.1,3.3-0.3c1,8,7.8,14.3,16.1,14.3c6.3,0,11.8-3.6,14.5-9c2.1,2.6,5.4,4.3,9,4.3
			c6.4,0,11.6-5.2,11.6-11.6c0-0.7-0.1-1.3-0.2-1.9c1,0.2,2.1,0.4,3.1,0.4c7.4,0,13.3-6,13.3-13.3
			C1318.5,108.5,1312.6,102.5,1305.2,102.5z"/>
		<path class="st0" d="M1116.7,74c0-3.9-3.1-7-7-7c-0.5,0-1,0.1-1.5,0.2c-0.4-5.2-4.7-9.3-10-9.3c-3.8,0-7.2,2.1-8.9,5.3
			c-1.3-1.3-3.1-2.1-5-2.1c-3.9,0-7,3-7.2,6.8c-0.1,0-0.1,0-0.2,0c-5,0-9.1,4.1-9.1,9.1c0,4.6,3.4,8.3,7.8,9v0.1
			c0,4,3.2,7.2,7.2,7.2c2.1,0,3.9-0.9,5.2-2.3c0.9,2.1,3,3.6,5.4,3.6c2.7,0,5-1.9,5.7-4.4c1.1,0.5,2.4,0.8,3.8,0.8
			c5,0,9.1-4.1,9.1-9.1c0-0.4,0-0.8-0.1-1.2C1114.5,79.8,1116.7,77.1,1116.7,74z"/>
		<path class="st0" d="M1053,262.7h162l-119-92.6c-12.6-9.8-27.8-14.7-43-14.7"/>
		<g>
			<line class="st0" x1="1083.2" y1="239.6" x2="1083.2" y2="225.5"/>
			<path class="st0" d="M1075.2,225.5h16.4c3.9,0,6.5-4.1,4.8-7.7l-10.4-21.6c-1-2.2-4.1-2.2-5.2,0l-10.4,21.6
				C1068.7,221.4,1071.2,225.5,1075.2,225.5z"/>
		</g>
	</g>
	<g>
		<line class="st0" x1="0.9" y1="262.7" x2="1053" y2="262.7"/>
		<path class="st0" d="M104.4,217.2l27.5-21.4c18.3-14.2,43.8-14.2,62.1,0l86,66.9H162.9L104.4,217.2z"/>
		<g>
			<line class="st0" x1="81.9" y1="199.7" x2="81.9" y2="185.7"/>
			<path class="st0" d="M75.6,185.7h12.8c3.1,0,5.1-3.2,3.8-6l-8.1-16.9c-0.8-1.7-3.2-1.7-4,0L72,179.7
				C70.4,182.5,72.6,185.7,75.6,185.7z"/>
		</g>
		<g>
			<line class="st0" x1="456.4" y1="262.7" x2="456.4" y2="247.8"/>
			<path class="st0" d="M447.8,247.8h17.3c4.2,0,6.9-4.3,5.1-8.1l-11-22.8c-1.1-2.3-4.4-2.3-5.5,0l-11,22.8
				C440.8,243.4,443.7,247.8,447.8,247.8z"/>
		</g>
		<path class="st0" d="M691.4,174.9c1.8,1.1,3.5,2.3,5.2,3.7l108.2,84.1H657.5H510.3l108.2-84.2c17-13.2,39-16.7,58.6-10.3"/>
		<g>
			<line class="st0" x1="641.6" y1="215.7" x2="641.6" y2="205.7"/>
			<path class="st0" d="M635.8,205.7h11.6c2.8,0,4.6-2.9,3.4-5.4l-7.4-15.3c-0.7-1.5-2.9-1.5-3.7,0l-7.4,15.3
				C631.2,202.8,632.9,205.7,635.8,205.7z"/>
		</g>
		<g>
			<line class="st0" x1="571.7" y1="214.8" x2="571.7" y2="203"/>
			<path class="st0" d="M567.1,203h9.1c2.2,0,3.6-2.3,2.7-4.3l-5.8-12c-0.6-1.2-2.3-1.2-2.9,0l-5.8,12
				C563.4,200.7,564.8,203,567.1,203z"/>
		</g>
		<g>
			<line class="st0" x1="683.4" y1="185.1" x2="683.4" y2="176.7"/>
			<path class="st0" d="M678.2,176.7h10.1c2.4,0,4-2.6,3-4.8l-6.4-13.4c-0.6-1.3-2.6-1.3-3.2,0l-6.5,13.4
				C674.2,174.1,675.8,176.7,678.2,176.7z"/>
		</g>
		<path class="st0" d="M253.2,102.5c-2,0-3.8,0.4-5.5,1.2c0-0.4,0.1-0.8,0.1-1.2c0-5.9-4.8-10.7-10.7-10.7c-2.5,0-4.8,0.9-6.6,2.3
			c-1.4-5.8-6.6-10.1-12.8-10.1c-7,0-12.7,5.5-13.1,12.4c-2.6-1.4-5.7-2.1-8.8-2.1c-10.7,0-19.3,8.7-19.3,19.3
			c0,10.7,8.7,19.3,19.3,19.3c1.1,0,2.2-0.1,3.3-0.3c1,8,7.8,14.3,16.1,14.3c6.3,0,11.8-3.6,14.5-9c2.1,2.6,5.4,4.3,9,4.3
			c6.4,0,11.6-5.2,11.6-11.6c0-0.7-0.1-1.3-0.2-1.9c1,0.2,2.1,0.4,3.1,0.4c7.4,0,13.3-6,13.3-13.3
			C266.5,108.5,260.6,102.5,253.2,102.5z"/>
		<path class="st0" d="M966.8,77.9c-1.9,0-3.8,0.4-5.4,1.2c0-0.4,0.1-0.8,0.1-1.2c0-5.8-4.7-10.5-10.5-10.5c-2.5,0-4.7,0.8-6.5,2.3
			c-1.3-5.7-6.5-10-12.6-10c-6.9,0-12.6,5.4-12.9,12.3c-2.6-1.3-5.6-2.1-8.7-2.1c-10.6,0-19.1,8.6-19.1,19.1
			c0,10.6,8.6,19.1,19.1,19.1c1.1,0,2.2-0.1,3.2-0.3c1,7.9,7.7,14.1,15.9,14.1c6.3,0,11.7-3.6,14.3-8.8c2.1,2.6,5.3,4.2,8.9,4.2
			c6.3,0,11.4-5.1,11.4-11.4c0-0.7-0.1-1.3-0.2-1.9c1,0.2,2,0.4,3.1,0.4c7.3,0,13.2-5.9,13.2-13.2C980,83.9,974,77.9,966.8,77.9z"/>
		<path class="st0" d="M581.3,70.2c0.9,0,1.8,0.2,2.5,0.5c0-0.2,0-0.4,0-0.5c0-2.7,2.2-4.9,4.9-4.9c1.1,0,2.2,0.4,3,1.1
			c0.6-2.7,3-4.7,5.9-4.7c3.2,0,5.9,2.5,6,5.7c1.2-0.6,2.6-1,4.1-1c4.9,0,8.9,4,8.9,8.9s-4,8.9-8.9,8.9c-0.5,0-1,0-1.5-0.1
			c-0.4,3.7-3.6,6.6-7.4,6.6c-2.9,0-5.5-1.7-6.7-4.1c-1,1.2-2.5,2-4.1,2c-2.9,0-5.3-2.4-5.3-5.3c0-0.3,0-0.6,0.1-0.9
			c-0.5,0.1-0.9,0.2-1.4,0.2c-3.4,0-6.2-2.8-6.2-6.2C575.2,73,577.9,70.2,581.3,70.2z"/>
		<path class="st0" d="M64.7,74c0-3.9-3.1-7-7-7c-0.5,0-1,0.1-1.5,0.2c-0.4-5.2-4.7-9.3-10-9.3c-3.8,0-7.2,2.1-8.9,5.3
			c-1.3-1.3-3.1-2.1-5-2.1c-3.9,0-7,3-7.2,6.8c-0.1,0-0.1,0-0.2,0c-5,0-9.1,4.1-9.1,9.1c0,4.6,3.4,8.3,7.8,9v0.1
			c0,4,3.2,7.2,7.2,7.2c2.1,0,3.9-0.9,5.2-2.3c0.9,2.1,3,3.6,5.4,3.6c2.7,0,5-1.9,5.7-4.4c1.1,0.5,2.4,0.8,3.8,0.8
			c5,0,9.1-4.1,9.1-9.1c0-0.4,0-0.8-0.1-1.2C62.6,79.8,64.7,77.1,64.7,74z"/>
		<path class="st0" d="M748.5,142.5c0-5,4-9,9-9c0.7,0,1.3,0.1,1.9,0.2c0.5-6.7,6.1-11.9,12.9-11.9c4.9,0,9.2,2.8,11.4,6.8
			c1.7-1.6,4-2.7,6.5-2.7c5,0,9,3.9,9.2,8.8c0.1,0,0.2,0,0.2,0c6.4,0,11.7,5.2,11.7,11.7c0,5.9-4.3,10.7-10,11.5v0.1
			c0,5.1-4.1,9.2-9.2,9.2c-2.6,0-5-1.1-6.7-2.9c-1.1,2.7-3.8,4.6-6.9,4.6c-3.5,0-6.5-2.4-7.3-5.7c-1.5,0.7-3.1,1-4.8,1
			c-6.5,0-11.7-5.2-11.7-11.7c0-0.5,0-1.1,0.1-1.6C751.2,150,748.5,146.5,748.5,142.5z"/>
		<path class="st0" d="M440.3,143.6c-0.9,0-1.8,0.2-2.6,0.5c0.1-0.5,0.2-1.1,0.2-1.6c0-4.6-3.7-8.2-8.2-8.2c-1.9,0-3.6,0.6-5,1.7
			c-2.2-3.4-5.9-5.7-10.3-5.7c-6.7,0-12.2,5.4-12.2,12.2c0,0.5,0,1,0.1,1.6c-1.3-1-2.9-1.6-4.7-1.6c-2.7,0-5.1,1.3-6.5,3.4
			c-0.9,1.3-1.4,2.8-1.4,4.4c0,4.1,3.1,7.4,7.1,7.8c-0.2,0.9-0.4,1.8-0.4,2.8c0,5.6,4.5,10.1,10.1,10.1c3.2,0,6-1.4,7.8-3.7
			c1.2,1.5,3.1,2.4,5.1,2.4c3.3,0,6-2.3,6.6-5.4c1.2,0.6,2.5,1,3.9,1c4.6,0,8.2-3.7,8.2-8.2c0-0.1,0-0.2,0-0.3
			c0.6,0.2,1.3,0.3,2.1,0.3c3.7,0,6.7-3,6.7-6.7C447.1,146.6,444.1,143.6,440.3,143.6z"/>
		<path class="st0" d="M0.9,262.7h162l-119-92.6c-12.6-9.8-27.8-14.7-43-14.7"/>
		<g>
			<line class="st0" x1="31.2" y1="239.6" x2="31.2" y2="225.5"/>
			<path class="st0" d="M23.2,225.5h16.4c3.9,0,6.5-4.1,4.8-7.7L34,196.2c-1-2.2-4.1-2.2-5.2,0l-10.4,21.6
				C16.7,221.4,19.2,225.5,23.2,225.5z"/>
		</g>
		<g>
			<g>
				<line class="st0" x1="998" y1="203.2" x2="998" y2="192.2"/>
				<path class="st0" d="M991.8,192.2h12.8c3.1,0,5.1-3.2,3.8-6l-8.1-16.9c-0.8-1.7-3.2-1.7-4,0l-8.1,16.9
					C986.7,189,988.7,192.2,991.8,192.2z"/>
			</g>
			<g>
				<line class="st0" x1="925.8" y1="235.7" x2="925.8" y2="224.6"/>
				<path class="st0" d="M921.9,224.6h7.9c1.9,0,3.1-2,2.3-3.7l-5-10.4c-0.5-1-2-1-2.5,0l-5,10.4C918.7,222.6,920,224.6,921.9,224.6
					z"/>
			</g>
			<polyline class="st0" points="987.5,187.6 891,262.7 1053,262.7 			"/>
			<path class="st0" d="M1053,155.4c-15.2,0-30.3,4.9-43,14.7l-7,5.4"/>
			<g>
				<line class="st0" x1="1042.2" y1="156.4" x2="1042.2" y2="147.4"/>
				<path class="st0" d="M1037.2,147.4h10c2.4,0,4-2.5,2.9-4.7l-6.4-13.2c-0.6-1.3-2.5-1.3-3.2,0l-6.4,13.2
					C1033.2,144.9,1034.8,147.4,1037.2,147.4z"/>
			</g>
		</g>
	</g>
	<path class="st0" d="M1375,262.7"/>
	<path class="st0" d="M1375,262.7"/>
</g>
</svg>
